<?xml version="1.0" standalone="no"?>
<!DOCTYPE svg PUBLIC "-//W3C//DTD SVG 20010904//EN"
 "http://www.w3.org/TR/2001/REC-SVG-20010904/DTD/svg10.dtd">
<svg version="1.0" xmlns="http://www.w3.org/2000/svg"
 width="564.000000pt" height="347.000000pt" viewBox="0 0 564.000000 347.000000"
 preserveAspectRatio="xMidYMid meet">

<g transform="translate(0.000000,347.000000) scale(0.100000,-0.100000)"
fill="#000000" stroke="none">
<path d="M407 2963 c-31 -8 -19 -65 18 -81 17 -8 48 -37 70 -65 22 -29 107
-131 189 -227 82 -96 156 -183 164 -192 13 -16 12 -27 -8 -100 -32 -114 -57
-171 -71 -162 -8 5 -10 -1 -7 -19 3 -16 0 -31 -8 -38 -23 -19 -17 -39 12 -37
16 2 33 13 42 28 9 14 24 35 35 47 11 12 17 29 13 38 -3 9 -2 13 4 10 6 -3 10
-3 11 2 2 26 11 56 27 98 l19 47 35 -42 c21 -24 39 -57 42 -78 14 -81 49 -241
66 -302 25 -88 50 -215 50 -255 0 -18 5 -35 11 -37 7 -2 12 -35 13 -83 l1 -79
-65 -14 c-36 -8 -75 -16 -87 -18 -23 -4 -34 -44 -13 -44 6 0 6 -9 0 -26 -20
-51 18 -74 123 -74 30 0 40 -4 44 -20 3 -11 13 -20 22 -21 10 0 11 -2 3 -6
-19 -7 -14 -31 8 -38 22 -7 29 -52 8 -52 -7 0 -24 -3 -37 -7 -13 -5 -21 -4
-18 1 3 5 1 15 -4 23 -7 11 -9 3 -7 -25 3 -34 7 -41 28 -43 34 -5 52 -21 45
-42 -3 -9 -7 -67 -9 -128 -1 -62 -5 -114 -7 -116 -2 -2 -44 -6 -94 -8 l-90 -3
-3 183 -2 182 -166 0 -166 0 7 -64 c10 -90 -2 -187 -22 -179 -8 3 -13 14 -10
24 3 11 1 21 -3 24 -5 3 -11 -7 -13 -22 -2 -16 -5 -2 -6 30 l-1 57 -91 0 -90
0 3 -27 c3 -27 1 -28 -52 -33 -45 -4 -54 -8 -52 -22 2 -15 -5 -18 -43 -18
l-45 0 0 -79 c0 -44 -4 -83 -10 -86 -5 -3 -10 -1 -10 6 0 7 -7 4 -15 -7 -13
-17 -14 -13 -15 51 l0 70 -90 -3 -90 -3 0 -175 0 -175 98 1 c53 0 197 -3 320
-6 l222 -7 1 29 c1 26 2 27 7 6 l7 -23 2270 -1 2270 0 3 22 c2 12 -1 27 -7 33
-14 14 -15 137 -1 137 6 0 11 48 11 123 l2 122 9 -115 c5 -63 7 -163 4 -222
l-6 -108 215 0 215 0 0 625 c0 374 -4 625 -9 625 -5 0 -9 72 -10 168 0 92 0
209 0 260 l-1 92 -30 0 c-30 0 -30 0 -30 58 l0 57 -48 0 c-42 0 -47 -3 -50
-24 -2 -15 0 -21 7 -17 6 4 11 2 11 -3 0 -6 -5 -11 -11 -11 -8 0 -7 -6 2 -17
16 -19 16 -23 -3 -34 -21 -14 -28 -11 -28 11 0 15 -7 20 -25 20 -18 0 -25 -5
-25 -20 0 -12 -7 -20 -16 -20 -28 0 -44 -27 -44 -74 0 -25 -4 -46 -10 -46 -5
0 -10 16 -10 35 0 31 -3 35 -25 35 -24 0 -24 -2 -27 -92 l-3 -93 -32 -3 -33
-3 0 -200 c0 -138 -3 -198 -11 -194 -6 4 -7 19 -4 36 6 28 6 29 -34 29 -37 0
-41 -2 -41 -25 0 -21 -5 -25 -30 -25 -18 0 -33 -6 -36 -15 -4 -8 -13 -15 -21
-15 -13 0 -15 9 -10 45 l7 45 -70 0 -69 0 -6 38 c-3 20 -10 60 -16 87 -6 28
-11 75 -12 105 -3 81 -18 96 -33 35 -11 -43 -11 -52 3 -67 9 -10 13 -21 10
-24 -3 -3 3 -22 13 -42 18 -33 19 -62 1 -33 -5 7 -12 13 -17 14 -5 1 -9 9 -8
18 0 8 -5 20 -12 26 -9 9 -13 2 -18 -29 -5 -32 -3 -45 10 -57 15 -15 15 -14 4
7 -6 13 -9 26 -6 30 3 3 6 0 6 -6 0 -7 7 -12 15 -12 10 0 17 -14 21 -41 4 -22
13 -43 20 -46 8 -3 14 -15 13 -27 0 -20 -1 -20 -8 -2 -7 19 -8 19 -15 1 -6
-17 -9 -16 -26 10 -10 16 -16 33 -13 38 3 4 -4 3 -16 -5 -12 -7 -21 -21 -21
-30 0 -16 -13 -18 -134 -18 -115 0 -135 -2 -140 -17 -6 -15 3 -15 99 -10 66 4
105 3 105 -3 0 -5 -21 -40 -46 -77 l-46 -68 -132 -6 c-148 -8 -192 -15 -200
-35 -3 -7 3 -19 13 -26 23 -17 36 -122 16 -138 -7 -6 -12 -19 -10 -28 1 -9 -1
-27 -6 -39 -5 -12 -4 -23 1 -25 5 -2 10 -24 11 -50 1 -26 6 -45 11 -42 4 3 8
-7 9 -23 0 -15 2 -36 4 -45 2 -9 -15 -36 -37 -60 -34 -37 -41 -41 -51 -27 -7
9 -16 14 -22 12 -5 -1 -18 11 -27 27 -21 37 -35 38 -50 5 -8 -17 -19 -25 -37
-25 -41 0 -71 11 -71 26 0 14 -27 12 -59 -5 -11 -6 -34 -11 -51 -11 -21 0 -29
-4 -24 -12 4 -7 3 -8 -4 -4 -15 9 -16 36 -2 36 7 0 7 6 0 19 -9 19 -13 19 -53
5 -32 -11 -56 -12 -97 -5 -30 5 -43 9 -28 10 57 2 80 27 31 33 -24 3 -28 8
-31 38 -2 19 -10 38 -17 42 -8 5 -13 28 -14 62 0 70 19 92 152 170 53 31 97
61 97 67 0 5 11 9 24 9 38 0 86 -12 86 -21 0 -14 34 -49 47 -49 9 0 11 -8 7
-25 -4 -18 -2 -25 8 -25 8 0 25 -11 38 -25 31 -33 54 -33 46 -1 -5 20 -3 23
13 19 10 -3 21 -1 25 5 8 13 -42 77 -61 77 -17 0 -33 32 -26 52 3 8 -4 13 -21
13 -15 0 -30 8 -36 20 -6 11 -18 20 -26 20 -8 0 -12 -4 -9 -10 3 -5 -3 -10
-14 -10 -11 0 -23 5 -26 10 -3 6 -1 10 6 10 10 0 11 2 0 13 -7 7 -39 12 -82
12 -58 0 -73 -3 -85 -19 -7 -11 -16 -17 -19 -14 -3 3 -20 -8 -38 -25 -18 -16
-44 -34 -60 -39 -15 -6 -32 -19 -38 -29 -5 -10 -14 -19 -20 -19 -6 0 -7 5 -4
10 3 6 2 10 -4 10 -5 0 -13 -10 -17 -22 -4 -13 -17 -36 -29 -53 -13 -16 -26
-41 -30 -55 -12 -38 -35 -68 -56 -75 -10 -4 -19 -12 -19 -20 0 -20 -23 -24
-37 -6 -9 13 -17 14 -42 5 -29 -12 -30 -11 -34 20 l-3 31 -9 -33 c-6 -28 -11
-33 -30 -28 -12 3 -46 -1 -76 -8 -29 -8 -56 -13 -59 -11 -3 2 -4 -12 -2 -31 4
-29 1 -34 -16 -34 -38 0 -52 -11 -52 -41 0 -27 3 -29 40 -29 22 0 40 -5 40
-11 0 -5 -4 -8 -9 -4 -5 3 -13 1 -16 -5 -7 -11 -95 -7 -115 5 -5 3 -10 24 -10
46 0 32 3 39 20 39 13 0 20 7 20 19 0 14 -5 18 -19 14 -23 -6 -39 16 -20 27 7
5 14 16 15 25 4 25 10 29 62 35 46 5 47 6 50 42 3 33 0 38 -22 43 -88 18 -80
8 -73 88 4 40 23 137 42 217 19 80 35 155 35 167 0 12 5 25 10 28 6 4 9 14 8
22 -2 9 5 17 14 18 13 2 23 -12 38 -51 27 -73 48 -104 71 -104 11 0 19 5 19
10 0 6 -4 10 -10 10 -5 0 -10 9 -10 19 0 11 -4 23 -10 26 -5 3 -19 35 -30 71
l-20 66 78 90 c42 50 101 120 130 155 29 34 57 63 63 63 6 0 7 5 4 10 -3 6 -1
10 4 10 17 0 13 20 -6 27 -10 4 -23 -2 -35 -17 -18 -22 -19 -22 -40 -4 l-22
19 17 -27 c16 -26 16 -27 -10 -48 -14 -11 -29 -17 -32 -13 -9 12 -62 13 -55 1
3 -5 16 -13 28 -18 20 -7 20 -8 -9 -21 -16 -8 -33 -18 -36 -23 -4 -5 -12 -5
-18 -2 -6 4 -11 0 -11 -10 0 -16 -1 -16 -19 1 -19 16 -20 16 -18 -4 1 -12 5
-21 10 -21 4 0 5 -5 2 -11 -4 -6 -13 -8 -21 -5 -9 3 -11 0 -7 -11 5 -13 2 -15
-11 -10 -12 5 -15 3 -10 -6 4 -6 -5 -1 -19 12 -14 13 -29 37 -32 53 -5 23 -11
28 -26 23 -13 -4 -19 -2 -19 9 0 8 -5 18 -11 22 -8 5 -10 -3 -5 -28 6 -31 -1
-45 -71 -150 -43 -64 -81 -114 -85 -112 -4 3 -15 -14 -26 -36 -10 -22 -21 -37
-25 -34 -4 4 -7 1 -7 -8 0 -21 -32 -48 -58 -48 -47 0 -125 -25 -129 -41 -3 -9
-14 -22 -26 -28 l-22 -12 23 5 c24 5 27 -1 12 -24 -8 -13 -10 -13 -10 0 0 10
-5 7 -16 -8 -8 -12 -23 -22 -32 -22 -23 0 -59 -41 -68 -76 -9 -37 -32 -64 -56
-64 -11 0 -17 -4 -14 -9 3 -5 -1 -12 -10 -15 -9 -4 -14 -9 -11 -12 3 -3 17 2
31 11 24 16 26 16 20 1 -4 -9 -19 -23 -35 -32 l-29 -14 6 57 c3 32 7 59 8 61
2 2 11 -4 20 -13 13 -14 16 -14 16 -2 0 8 -7 17 -15 21 -24 9 -18 20 23 38
l37 17 -34 -5 c-30 -6 -33 -4 -27 12 12 31 12 39 -1 36 -7 -1 -13 4 -13 10 0
7 -11 -7 -25 -30 -14 -24 -22 -49 -18 -55 3 -6 1 -7 -5 -3 -11 6 -16 -6 -13
-26 0 -5 -4 -8 -10 -8 -5 0 -7 -4 -4 -10 3 -5 2 -10 -4 -10 -5 0 -13 -10 -17
-22 -4 -13 -11 -26 -16 -29 -5 -3 -10 -16 -11 -27 -1 -12 -3 -22 -6 -22 -8 0
-76 83 -97 119 -11 20 -30 37 -41 39 -11 2 -78 48 -149 102 -71 55 -162 124
-201 155 -40 30 -73 61 -73 68 0 8 -12 24 -27 38 -25 22 -26 22 -9 1 31 -36
14 -33 -29 5 -22 19 -32 33 -23 30 11 -4 15 -2 12 7 -3 7 4 20 14 29 13 12 17
26 14 46 -3 24 -13 33 -46 47 -22 10 -54 18 -70 20 -16 1 -31 7 -35 12 -4 6
-26 9 -49 8 -31 -2 -50 2 -70 18 -45 34 -52 44 -46 59 3 8 -10 27 -32 46 -20
18 -39 44 -43 59 -5 15 -14 26 -22 25 -8 -2 -37 32 -68 80 -29 45 -66 100 -82
122 -16 22 -50 71 -75 109 -44 66 -46 70 -35 106 22 73 4 100 -23 35 -15 -34
-29 -44 -40 -26 -4 5 -1 12 4 14 6 3 5 4 -2 3 -7 -1 -20 -16 -28 -34 -17 -36
-35 -43 -27 -11 5 17 3 19 -6 10 -9 -9 -8 -16 1 -32 11 -17 11 -25 -3 -45 -8
-13 -18 -24 -21 -24 -3 0 -26 16 -51 35 -25 19 -49 32 -54 29 -5 -3 -9 -1 -9
5 0 5 5 13 10 16 6 3 10 11 10 16 0 5 -10 3 -23 -5 -21 -14 -24 -13 -56 19
-32 33 -32 50 -1 23 8 -7 6 -2 -5 10 -11 13 -29 29 -40 34 l-20 11 20 -23 20
-23 -20 7 c-11 3 5 -16 35 -43 30 -28 50 -50 44 -51 -6 0 -19 9 -29 20 -10 11
-22 17 -26 14 -5 -3 -34 15 -65 40 -32 27 -49 46 -39 46 10 0 13 5 9 13 -5 8
-2 7 9 -2 15 -12 19 -12 32 5 21 27 18 40 -4 20 -13 -12 -21 -14 -26 -6 -4 6
-12 9 -18 7 -7 -2 -25 5 -42 16 l-30 21 24 -27 c38 -42 21 -40 -36 5 -47 36
-51 42 -37 55 13 14 17 13 37 -3 19 -16 19 -15 -2 9 -24 27 -49 38 -35 15 5
-7 2 -9 -9 -5 -9 3 -17 2 -19 -3 -2 -5 -12 -2 -23 7 -16 13 -17 15 -2 10 16
-6 16 -5 1 18 -16 24 -29 28 -67 18z m19 -58 c17 -16 14 -18 -10 -9 -9 3 -16
10 -16 15 0 13 9 11 26 -6z m304 -219 c72 -70 87 -82 97 -79 14 5 64 -37 58
-48 -4 -5 -1 -9 4 -9 6 0 11 -4 11 -10 0 -6 -9 -6 -26 0 -37 14 -49 13 -34 -4
6 -8 17 -13 25 -10 17 7 30 -15 16 -29 -12 -12 -56 37 -56 65 0 17 -39 61 -47
53 -5 -5 -98 89 -98 99 0 13 16 4 50 -28z m173 -58 c20 -16 26 -28 22 -41 -4
-9 -10 -17 -14 -17 -12 1 -104 90 -93 90 7 0 29 -16 51 -35 21 -19 42 -35 47
-35 5 0 -11 19 -36 41 -46 41 -28 39 23 -3z m-215 7 c11 -13 22 -22 26 -18 8
8 46 -27 46 -43 0 -25 -20 -25 -31 0 -7 14 -15 23 -19 21 -4 -3 -20 11 -34 30
-15 19 -23 35 -17 35 5 0 18 -11 29 -25z m440 -97 c35 -51 53 -84 43 -81 -11
3 -10 0 4 -11 35 -26 55 -49 49 -55 -3 -3 -9 1 -15 9 -7 13 -10 13 -18 1 -5
-7 -14 -11 -20 -7 -7 5 -9 1 -4 -11 5 -15 2 -14 -19 5 -13 12 -30 22 -36 22
-18 0 -42 54 -32 71 8 11 13 12 30 1 25 -15 27 -4 3 14 -14 9 -21 10 -32 1
-13 -11 -66 -19 -56 -8 3 2 0 10 -6 17 -13 16 -2 37 17 30 11 -4 11 -2 2 13
-9 14 -8 26 2 50 7 18 16 30 21 29 5 -2 35 -42 67 -90z m-318 -3 c22 -24 22
-25 4 -25 -23 0 -44 18 -44 37 0 20 14 16 40 -12z m37 -67 c6 -7 15 -27 18
-43 7 -28 5 -27 -38 20 -26 28 -46 53 -47 58 0 10 53 -18 67 -35z m273 -93
c37 -38 29 -47 -13 -15 -14 11 -29 20 -34 20 -5 0 -18 7 -29 15 -18 14 -17 14
12 15 22 0 40 -10 64 -35z m118 -12 c18 -16 34 -35 36 -44 1 -10 8 -24 15 -33
23 -27 1 -18 -47 22 -56 44 -62 51 -55 69 7 19 14 17 51 -14z m-278 -13 c11
-21 4 -25 -19 -11 -7 5 -10 14 -7 20 10 15 14 14 26 -9z m168 -18 c38 -5 82
-31 82 -48 0 -8 4 -13 9 -10 5 4 33 -16 63 -44 50 -47 86 -68 58 -35 -20 24
-5 18 16 -7 10 -12 13 -18 7 -14 -8 4 -13 2 -13 -4 0 -7 -14 -4 -35 9 -19 11
-35 15 -35 10 0 -7 -11 -9 -27 -5 -22 4 -24 4 -8 -3 35 -16 59 -24 84 -27 38
-5 46 -19 31 -55 -8 -18 -16 -27 -18 -21 -2 6 -9 9 -16 6 -7 -3 -37 22 -66 56
-30 33 -59 60 -64 60 -6 0 21 -31 59 -70 38 -38 65 -70 59 -70 -16 0 -144 134
-134 140 4 3 7 17 7 32 -1 14 -5 24 -9 22 -10 -6 -47 16 -85 50 -18 17 -33 26
-33 20 0 -5 16 -22 36 -37 35 -29 41 -43 12 -32 -8 3 -25 19 -37 36 -17 23
-20 33 -11 50 10 17 14 18 27 8 8 -8 27 -15 41 -17z m-168 -27 c20 -24 6 -28
-15 -5 -10 11 -13 20 -8 20 6 0 16 -7 23 -15z m4590 -21 c0 -2 -7 -4 -15 -4
-8 0 -15 4 -15 10 0 5 7 7 15 4 8 -4 15 -8 15 -10z m-4423 -87 c21 -23 41 -77
29 -77 -4 0 -20 7 -36 15 -29 15 -40 35 -20 35 6 0 10 5 10 11 0 6 -6 9 -14 6
-14 -6 -26 12 -26 39 0 18 25 6 57 -29z m304 -10 c12 -22 12 -22 -10 -3 -11
11 -21 23 -21 28 0 14 19 -1 31 -25z m-175 -104 c-10 -11 -69 24 -81 48 -27
52 -15 54 35 4 27 -27 48 -50 46 -52z m2089 -23 c-16 -17 -34 -30 -39 -30 -11
0 -40 -38 -41 -52 0 -13 -19 -4 -21 10 -1 7 22 30 51 52 30 22 57 44 60 50 4
6 10 9 13 6 3 -4 -7 -20 -23 -36z m1975 5 c0 -14 -4 -25 -9 -25 -4 0 -6 11 -3
25 2 14 6 25 8 25 2 0 4 -11 4 -25z m287 3 c-3 -8 -6 -5 -6 6 -1 11 2 17 5 13
3 -3 4 -12 1 -19z m-4217 -3 c-7 -8 -16 -12 -21 -9 -13 8 -1 24 18 24 13 0 13
-3 3 -15z m1960 -48 c-25 -23 -46 -49 -48 -57 -2 -8 -12 -24 -23 -35 -15 -15
-19 -16 -19 -4 0 8 6 21 13 28 6 6 12 16 12 21 0 13 85 90 99 90 6 0 -9 -19
-34 -43z m-2117 -80 l38 -45 -31 -61 c-16 -34 -32 -61 -35 -61 -22 0 -73 154
-54 166 5 3 9 10 9 15 0 6 -4 8 -9 4 -16 -9 -22 13 -15 51 l7 37 26 -30 c14
-17 43 -51 64 -76z m1926 72 c13 -38 -2 -67 -25 -49 -10 9 -11 7 -7 -9 8 -30
-34 -63 -61 -49 -18 10 -18 12 -3 23 9 7 17 16 17 20 0 14 51 95 59 95 5 0 14
-14 20 -31z m2194 -6 c-7 -2 -19 -2 -25 0 -7 3 -2 5 12 5 14 0 19 -2 13 -5z
m56 -20 c-2 -4 -24 -5 -49 -2 -45 6 -45 6 -7 7 21 1 37 7 37 14 0 9 3 9 11 1
6 -6 10 -15 8 -20z m-4063 -33 c11 -40 11 -40 -15 -33 -14 3 -27 7 -28 8 -5 3
21 65 27 65 3 0 11 -18 16 -40z m-46 18 c0 -7 -5 -20 -10 -28 -7 -12 -12 -12
-22 -2 -9 9 -8 15 8 27 24 18 24 18 24 3z m73 -25 c-5 -12 -7 -12 -14 -1 -5 7
-9 19 -9 27 0 11 3 11 14 1 8 -6 12 -18 9 -27z m3897 17 c0 -5 -9 -9 -20 -7
-31 5 -36 17 -7 17 15 0 27 -4 27 -10z m50 1 c0 -6 -9 -9 -20 -8 -11 1 -20 5
-20 9 0 4 9 8 20 8 11 0 20 -4 20 -9z m30 -1 c0 -5 -4 -10 -10 -10 -5 0 -10 5
-10 10 0 6 5 10 10 10 6 0 10 -4 10 -10z m-3910 -20 c0 -5 -2 -10 -4 -10 -3 0
-8 5 -11 10 -3 6 -1 10 4 10 6 0 11 -4 11 -10z m-6 -43 c6 -4 1 -6 -11 -4 -30
4 -37 13 -29 34 7 17 8 17 18 -2 6 -11 16 -23 22 -28z m93 20 c-5 -15 -29 -16
-34 -2 -2 6 6 11 18 12 12 1 19 -3 16 -10z m45 -19 c-7 -7 -12 -8 -12 -2 0 6
3 14 7 17 3 4 9 5 12 2 2 -3 -1 -11 -7 -17z m68 8 c0 -8 -7 -16 -15 -20 -15
-5 -21 14 -8 27 11 12 23 8 23 -7z m-297 -2 c13 -4 13 -11 5 -35 l-10 -30 -24
22 c-29 27 -30 36 -6 42 9 3 18 5 19 6 1 0 8 -2 16 -5z m1812 -4 c-3 -5 -12
-10 -19 -10 -8 0 -19 -7 -26 -15 -14 -17 0 -21 17 -4 7 7 12 6 17 -6 3 -9 2
-13 -4 -10 -6 3 -10 0 -10 -8 0 -8 -7 -20 -15 -27 -12 -10 -15 -10 -15 1 0 7
-13 0 -30 -16 -22 -21 -27 -31 -18 -37 12 -7 5 -12 -13 -10 -4 1 -17 -11 -30
-26 -18 -20 -19 -23 -4 -12 18 14 19 14 6 -2 -10 -13 -18 -15 -31 -8 -34 18
-28 36 31 91 33 29 71 66 86 82 24 25 72 39 58 17z m2108 3 c-13 -2 -33 -2
-45 0 -13 2 -3 4 22 4 25 0 35 -2 23 -4z m330 0 c-13 -2 -33 -2 -45 0 -13 2
-3 4 22 4 25 0 35 -2 23 -4z m-3889 -19 c5 -14 4 -15 -9 -4 -17 14 -19 20 -6
20 5 0 12 -7 15 -16z m1360 8 c6 -10 -51 -68 -59 -61 -5 6 37 69 47 69 4 0 9
-4 12 -8z m-1635 -18 c2 -2 2 -6 0 -9 -8 -7 -49 7 -49 17 0 8 38 2 49 -8z m91
-6 c0 -13 -23 -5 -28 10 -2 7 2 10 12 6 9 -3 16 -11 16 -16z m255 -88 c-2 -4
7 -12 20 -18 14 -7 25 -16 25 -22 0 -5 6 -10 13 -10 8 0 22 -9 32 -20 20 -23
44 -28 26 -6 -10 12 -9 14 6 11 10 -2 23 -4 28 -5 6 0 2 -5 -7 -11 -20 -11
-24 -39 -7 -39 6 0 19 10 30 23 16 19 18 20 19 4 0 -10 -4 -16 -9 -13 -5 3
-11 -1 -15 -9 -3 -9 9 -26 32 -45 38 -31 63 -41 43 -16 -9 11 -9 16 0 22 8 4
9 3 5 -4 -4 -6 2 -17 14 -24 11 -7 20 -17 20 -22 0 -4 -7 -3 -15 4 -12 10 -15
10 -15 0 0 -9 -8 -7 -26 5 -14 9 -47 18 -72 20 l-47 4 50 -16 c28 -8 53 -19
56 -24 3 -5 18 -10 35 -12 16 -2 38 -8 49 -14 11 -6 27 -9 35 -6 8 2 5 -2 -8
-8 -18 -10 -25 -9 -40 4 -20 18 -37 23 -28 8 4 -5 -21 -8 -56 -6 l-63 4 65
-10 c108 -16 150 -49 88 -67 -18 -5 -44 -9 -57 -9 -29 2 -114 74 -104 90 3 7
2 9 -2 4 -5 -4 -19 0 -32 8 -14 9 -23 11 -23 5 0 -6 -5 -8 -12 -4 -9 6 -9 9 0
12 7 2 12 8 12 14 0 13 42 58 54 58 5 0 18 -7 28 -17 10 -9 20 -14 22 -12 3 2
-14 20 -37 39 -28 23 -39 28 -34 16 10 -24 -10 -47 -37 -42 -11 2 -15 1 -8 -1
19 -7 14 -25 -5 -21 -22 4 -30 37 -11 50 9 6 6 7 -9 3 -17 -5 -25 0 -38 22
-15 27 -15 27 -9 3 5 -21 -3 -16 -50 30 -31 30 -52 56 -48 58 5 1 28 -4 51
-11 23 -8 43 -11 46 -7 6 9 -10 15 -68 25 -23 4 -40 13 -43 23 -3 9 -10 25
-15 34 -19 36 14 29 53 -11 22 -22 50 -41 61 -41 14 0 4 11 -36 41 -56 39 -64
49 -51 62 8 8 125 -93 119 -103z m25 50 c37 -33 72 -60 78 -60 5 0 15 -6 21
-14 17 -20 -7 -16 -42 7 -14 9 -27 12 -29 7 -2 -5 -18 5 -36 21 -19 17 -31 33
-28 37 4 3 -6 18 -21 34 -47 49 -13 30 57 -32z m1412 38 c-7 -7 -12 -8 -12 -2
0 14 12 26 19 19 2 -3 -1 -11 -7 -17z m2051 15 c-13 -2 -33 -2 -45 0 -13 2 -3
4 22 4 25 0 35 -2 23 -4z m310 0 c-7 -2 -21 -2 -30 0 -10 3 -4 5 12 5 17 0 24
-2 18 -5z m-4264 -40 c23 -28 20 -59 -6 -80 -8 -6 -12 -16 -9 -22 11 -17 -38
-17 -57 0 -17 15 -16 19 9 72 14 32 29 57 34 57 5 0 18 -12 29 -27z m149 -1
c0 -9 3 -25 7 -34 5 -14 2 -18 -13 -18 -29 0 -36 16 -21 50 14 30 28 32 27 2z
m3805 21 c-13 -2 -33 -2 -45 0 -13 2 -3 4 22 4 25 0 35 -2 23 -4z m-3873 -13
c6 11 12 12 20 4 16 -16 1 -44 -25 -44 -18 0 -22 6 -22 26 0 19 2 22 8 13 8
-12 11 -11 19 1z m100 -11 c0 -6 -4 -7 -10 -4 -5 3 -10 11 -10 16 0 6 5 7 10
4 6 -3 10 -11 10 -16z m120 17 c0 -3 -4 -8 -10 -11 -5 -3 -10 -1 -10 4 0 6 5
11 10 11 6 0 10 -2 10 -4z m135 -7 c11 -17 -1 -21 -15 -4 -8 9 -8 15 -2 15 6
0 14 -5 17 -11z m3518 -6 c-13 -2 -33 -2 -45 0 -13 2 -3 4 22 4 25 0 35 -2 23
-4z m335 0 c-10 -2 -26 -2 -35 0 -10 3 -2 5 17 5 19 0 27 -2 18 -5z m-3978
-35 c0 -12 -1 -19 -3 -17 -1 2 -9 12 -16 22 -12 14 -11 17 3 17 10 0 16 -8 16
-22z m3643 15 c-13 -2 -33 -2 -45 0 -13 2 -3 4 22 4 25 0 35 -2 23 -4z m0 -20
c-13 -2 -33 -2 -45 0 -13 2 -3 4 22 4 25 0 35 -2 23 -4z m-3873 -7 c0 -3 -4
-8 -10 -11 -5 -3 -10 -1 -10 4 0 6 5 11 10 11 6 0 10 -2 10 -4z m1745 -6 c-3
-5 -10 -10 -16 -10 -5 0 -9 5 -9 10 0 6 7 10 16 10 8 0 12 -4 9 -10z m2252 4
c-3 -3 -12 -4 -19 -1 -8 3 -5 6 6 6 11 1 17 -2 13 -5z m-4037 -34 c-8 -5 -17
-6 -20 -3 -3 3 1 8 8 10 6 3 9 10 6 16 -4 7 -1 7 7 -1 12 -11 12 -14 -1 -22z
m3913 23 c-13 -2 -33 -2 -45 0 -13 2 -3 4 22 4 25 0 35 -2 23 -4z m-3640 -18
c9 -22 -8 -26 -21 -4 -10 15 -10 19 2 19 8 0 16 -7 19 -15z m1494 -2 c2 -6 -5
-17 -16 -23 -14 -7 -21 -7 -21 0 0 5 -10 0 -22 -12 -14 -14 -23 -17 -26 -10
-4 13 -4 23 1 20 7 -5 37 24 33 31 -3 4 7 7 21 6 15 0 28 -5 30 -12z m2270 -5
c-3 -8 -6 -5 -6 6 -1 11 2 17 5 13 3 -3 4 -12 1 -19z m-4187 -9 c0 -5 -4 -9
-10 -9 -5 0 -10 7 -10 16 0 8 5 12 10 9 6 -3 10 -10 10 -16z m4063 14 c-13 -2
-33 -2 -45 0 -13 2 -3 4 22 4 25 0 35 -2 23 -4z m-3669 -22 c21 -23 12 -49
-10 -30 -7 6 -11 15 -8 20 3 5 0 9 -5 9 -6 0 -11 5 -11 10 0 16 15 12 34 -9z
m3253 -13 c-3 -7 -5 -2 -5 12 0 14 2 19 5 13 2 -7 2 -19 0 -25z m386 15 c-7
-2 -19 -2 -25 0 -7 3 -2 5 12 5 14 0 19 -2 13 -5z m-4003 -34 c0 -10 -6 -19
-14 -19 -9 0 -12 8 -8 25 5 28 22 24 22 -6z m475 -19 c29 -30 35 -40 22 -40
-21 0 -67 46 -67 66 0 19 1 19 45 -26z m3522 34 c-3 -3 -12 -4 -19 -1 -8 3 -5
6 6 6 11 1 17 -2 13 -5z m-3577 -45 c0 -11 -11 -11 -29 0 -7 5 -10 14 -6 20 5
9 10 9 21 0 8 -6 14 -15 14 -20z m353 -7 c15 -16 15 -21 3 -38 -17 -23 -21
-19 -29 24 -7 36 2 41 26 14z m1085 -67 c-5 -28 -16 -56 -23 -64 -12 -12 -16
-9 -31 22 l-17 35 33 42 c40 51 53 39 38 -35z m1899 38 c-3 -10 -5 -4 -5 12 0
17 2 24 5 18 2 -7 2 -21 0 -30z m-167 13 c0 11 20 -18 20 -28 0 -4 -11 -7 -25
-6 -19 2 -25 8 -25 26 0 21 2 22 15 12 8 -7 15 -9 15 -4z m-3420 -7 c0 -5 10
-9 22 -9 32 0 10 -16 -33 -24 -33 -6 -35 -4 -33 16 1 13 3 23 3 23 12 6 41 1
41 -6z m174 -14 c3 -9 0 -15 -9 -15 -8 0 -15 7 -15 15 0 8 4 15 9 15 5 0 11
-7 15 -15z m515 -27 c31 -22 58 -43 60 -45 3 -2 0 -8 -6 -14 -8 -8 -18 -6 -36
6 -15 9 -32 13 -38 9 -7 -4 -9 -3 -6 3 4 6 -2 18 -13 28 -11 10 -17 22 -14 26
3 5 0 9 -5 9 -6 0 -11 5 -11 10 0 17 11 12 69 -32z m899 17 c-3 -13 -1 -22 3
-19 15 9 10 -13 -6 -26 -12 -10 -15 -9 -15 7 0 10 -5 24 -11 30 -14 14 -3 33
18 33 11 0 14 -7 11 -25z m32 4 c0 -5 -4 -9 -10 -9 -5 0 -10 7 -10 16 0 8 5
12 10 9 6 -3 10 -10 10 -16z m-1756 -11 c-3 -12 -12 -27 -18 -34 -9 -9 -12 -4
-13 22 -1 27 3 34 19 34 15 0 18 -4 12 -22z m383 -5 c3 -8 -5 -9 -23 -4 -15 4
-29 12 -31 18 -3 8 5 9 23 4 15 -4 29 -12 31 -18z m163 -28 c0 -24 -24 -17
-53 16 -15 17 -27 32 -27 34 0 2 18 -6 40 -16 22 -11 40 -26 40 -34z m3115 45
c3 -5 -1 -10 -10 -10 -9 0 -13 5 -10 10 3 6 8 10 10 10 2 0 7 -4 10 -10z
m-3174 -58 c-13 -4 -41 22 -41 39 0 7 11 2 26 -12 14 -13 20 -25 15 -27z
m1192 34 c4 -10 1 -13 -9 -9 -15 6 -19 23 -5 23 5 0 11 -7 14 -14z m-1652 -29
c-16 -16 -26 0 -10 19 9 11 15 12 17 4 2 -6 -1 -17 -7 -23z m39 23 c0 -5 -4
-10 -10 -10 -5 0 -10 5 -10 10 0 6 5 10 10 10 6 0 10 -4 10 -10z m1480 0 c0
-5 -2 -10 -4 -10 -3 0 -8 5 -11 10 -3 6 -1 10 4 10 6 0 11 -4 11 -10z m-80
-20 c0 -5 -5 -10 -11 -10 -5 0 -7 5 -4 10 3 6 8 10 11 10 2 0 4 -4 4 -10z m62
-20 c-1 -14 -12 -38 -24 -55 -14 -20 -16 -25 -5 -16 22 17 22 3 0 -21 -18 -20
-38 -25 -27 -6 4 7 9 26 11 42 2 17 13 41 26 55 12 14 14 19 5 12 -16 -12 -18
-11 -18 4 0 10 6 15 18 13 11 -3 16 -12 14 -28z m168 -11 c0 -16 -28 3 -33 23
-5 19 -5 19 14 2 10 -9 19 -21 19 -25z m-280 24 c0 -3 -8 -15 -17 -26 -10 -11
-12 -17 -5 -13 6 4 12 3 12 -2 0 -6 -6 -12 -13 -15 -13 -5 -22 37 -11 54 6 10
34 12 34 2z m240 -19 c0 -8 -4 -14 -10 -14 -5 0 -10 9 -10 21 0 11 5 17 10 14
6 -3 10 -13 10 -21z m113 -8 c14 -31 14 -35 1 -40 -25 -10 -30 -7 -43 20 -9
20 -9 30 0 40 17 21 24 18 42 -20z m-1233 -20 c0 4 20 -12 45 -36 24 -24 42
-46 40 -49 -3 -2 8 -10 25 -17 33 -14 48 -40 33 -55 -6 -6 -27 -2 -58 11 -26
11 -50 19 -52 16 -2 -2 16 -12 41 -21 49 -19 56 -29 30 -39 -9 -3 -14 -13 -11
-21 4 -9 1 -12 -7 -9 -7 3 -16 -2 -19 -10 -4 -9 -12 -16 -19 -16 -11 0 -11 2
0 8 7 5 10 15 7 24 -6 15 -34 16 -67 3 -27 -11 -42 33 -33 92 4 26 7 72 7 101
l0 53 19 -22 c10 -12 19 -18 19 -13z m700 24 c0 -5 -5 -10 -11 -10 -5 0 -7 5
-4 10 3 6 8 10 11 10 2 0 4 -4 4 -10z m320 6 c0 -3 -4 -8 -10 -11 -5 -3 -10
-1 -10 4 0 6 5 11 10 11 6 0 10 -2 10 -4z m-630 -36 c0 -11 -43 -14 -53 -3 -4
3 -2 12 4 19 12 15 49 2 49 -16z m421 -13 c-13 -13 -15 1 -4 30 7 17 8 17 11
-1 2 -10 -1 -23 -7 -29z m-950 19 c-7 -8 -8 -16 -4 -18 4 -3 2 -3 -4 -2 -7 2
-13 -1 -13 -6 0 -6 -5 -10 -12 -10 -6 0 -1 11 12 25 25 26 41 35 21 11z m252
-30 c48 -45 59 -66 32 -66 -17 0 -115 87 -115 101 0 22 39 5 83 -35z m907 30
c0 -3 -4 -8 -10 -11 -5 -3 -10 -1 -10 4 0 6 5 11 10 11 6 0 10 -2 10 -4z m14
-18 c-13 -24 -37 -48 -47 -48 -6 0 2 14 18 30 31 32 41 38 29 18z m-719 -8 c3
-5 13 -7 23 -4 16 5 16 5 0 -6 -13 -8 -23 -8 -38 0 -11 6 -20 13 -20 15 0 9
29 5 35 -5z m351 -17 c-2 -16 -7 -45 -11 -65 -3 -23 -11 -38 -20 -38 -8 0 -18
-8 -24 -17 -5 -10 -12 -15 -16 -11 -6 6 64 158 73 158 2 0 1 -12 -2 -27z m204
-19 c-10 -21 -21 -47 -24 -56 -3 -10 -15 -18 -27 -18 -21 0 -21 0 2 19 14 11
24 30 24 47 1 16 5 27 9 24 4 -3 12 3 18 13 19 35 18 10 -2 -29z m53 21 c-5
-25 -33 -57 -33 -37 0 17 22 62 30 62 4 0 5 -11 3 -25z m1137 -5 c0 -4 -8 -10
-17 -13 -10 -4 -36 -13 -58 -21 -56 -22 -56 -20 0 18 45 30 75 37 75 16z
m1470 -22 c0 -7 -5 -20 -11 -28 -9 -13 -10 -12 -5 3 3 11 0 17 -9 17 -8 0 -15
5 -15 10 0 6 9 10 20 10 11 0 20 -6 20 -12z m-2370 -19 c0 -12 -37 -12 -45 0
-3 5 3 11 12 13 21 5 33 0 33 -13z m1857 1 c1 -11 -2 -22 -8 -25 -5 -4 -9 5
-9 19 0 30 15 35 17 6z m-2757 0 c-20 -13 -33 -13 -25 0 3 6 14 10 23 10 15 0
15 -2 2 -10z m556 -18 c-4 -3 -16 -7 -28 -9 -16 -3 -18 -1 -9 10 6 8 7 17 3
22 -4 4 4 2 16 -4 13 -7 21 -15 18 -19z m234 18 c0 -5 -4 -10 -10 -10 -5 0
-10 5 -10 10 0 6 5 10 10 10 6 0 10 -4 10 -10z m190 -23 c0 -18 -2 -19 -10 -7
-13 20 -13 43 0 35 6 -3 10 -16 10 -28z m-220 19 c0 -2 -7 -6 -15 -10 -8 -3
-15 -1 -15 4 0 6 7 10 15 10 8 0 15 -2 15 -4z m1600 -3 c-1 -5 -16 -26 -35
-47 -30 -33 -35 -36 -35 -18 0 42 18 72 45 72 14 0 25 -3 25 -7z m-1675 -22
c-3 -6 -11 -11 -17 -11 -6 0 -6 6 2 15 14 17 26 13 15 -4z m259 11 c3 -5 -1
-9 -9 -9 -8 0 -15 4 -15 9 0 4 4 8 9 8 6 0 12 -4 15 -8z m-899 -12 c-3 -5 -10
-10 -16 -10 -5 0 -9 5 -9 10 0 6 7 10 16 10 8 0 12 -4 9 -10z m-5 -31 c0 -5
-11 -9 -25 -9 -24 0 -32 10 -19 22 8 8 44 -3 44 -13z m484 2 c3 -5 16 -7 29
-3 l22 5 -20 -23 c-26 -30 -66 -45 -76 -29 -11 19 1 39 25 39 17 0 18 2 6 10
-9 6 -10 10 -3 10 6 0 14 -4 17 -9z m77 -18 c-8 -15 -10 -15 -11 -2 0 17 10
32 18 25 2 -3 -1 -13 -7 -23z m2876 -10 c-3 -10 -5 -4 -5 12 0 17 2 24 5 18 2
-7 2 -21 0 -30z m33 12 c0 -14 -2 -25 -4 -25 -2 0 -6 11 -8 25 -3 14 -1 25 3
25 5 0 9 -11 9 -25z m17 3 c-3 -8 -6 -5 -6 6 -1 11 2 17 5 13 3 -3 4 -12 1
-19z m30 -30 c-2 -13 -4 -5 -4 17 -1 22 1 32 4 23 2 -10 2 -28 0 -40z m-3637
35 c0 -4 -12 -18 -27 -31 -23 -19 -24 -21 -5 -12 29 14 28 1 -4 -29 l-25 -24
31 -31 c36 -38 40 -60 8 -50 -77 24 -105 45 -75 57 7 3 5 6 -5 6 -10 1 -18 -4
-18 -11 0 -6 -3 -8 -7 -4 -4 4 11 23 32 42 22 20 33 33 25 28 -8 -4 1 9 19 29
33 35 51 46 51 30z m700 -52 c-13 -56 -25 -67 -24 -23 0 28 24 85 32 78 2 -3
-1 -28 -8 -55z m-554 34 c4 -8 3 -23 0 -32 -6 -14 -9 -15 -16 -4 -4 8 -6 21
-2 30 4 13 1 12 -16 -3 -18 -16 -19 -20 -7 -33 8 -8 15 -20 15 -26 0 -12 -39
32 -40 45 0 8 41 38 53 38 4 0 10 -7 13 -15z m228 -11 c4 -11 1 -14 -11 -12
-10 2 -19 11 -21 21 -4 21 24 13 32 -9z m166 16 c0 -5 -5 -10 -11 -10 -5 0 -7
5 -4 10 3 6 8 10 11 10 2 0 4 -4 4 -10z m200 -50 c0 -49 -3 -60 -16 -60 -16 0
-16 9 0 70 3 8 5 23 5 33 1 9 3 17 6 17 3 0 5 -27 5 -60z m-510 40 c0 -5 -2
-10 -4 -10 -3 0 -8 5 -11 10 -3 6 -1 10 4 10 6 0 11 -4 11 -10z m67 -25 c9
-24 -1 -27 -15 -5 -8 13 -8 20 -2 20 6 0 13 -7 17 -15z m-276 -25 c5 0 9 5 9
11 0 7 9 0 21 -15 15 -19 20 -37 17 -61 -2 -19 0 -35 4 -35 12 0 10 -38 -2
-45 -6 -3 -14 4 -19 17 -6 13 -10 17 -10 11 -1 -7 -5 -13 -10 -13 -5 0 -8 27
-7 60 2 40 -1 60 -9 60 -7 0 -10 -11 -7 -30 5 -34 -3 -38 -30 -13 -23 21 -23
32 5 61 18 19 23 21 25 8 2 -9 8 -16 13 -16z m219 14 c0 -8 -4 -12 -10 -9 -5
3 -10 10 -10 16 0 5 5 9 10 9 6 0 10 -7 10 -16z m280 -4 c0 -5 -2 -10 -4 -10
-3 0 -8 5 -11 10 -3 6 -1 10 4 10 6 0 11 -4 11 -10z m126 -27 c-10 -10 -19 5
-10 18 6 11 8 11 12 0 2 -7 1 -15 -2 -18z m2277 20 c-7 -2 -19 -2 -25 0 -7 3
-2 5 12 5 14 0 19 -2 13 -5z m-2729 -19 c3 -9 6 -23 6 -32 0 -21 -15 -5 -25
26 -7 25 9 31 19 6z m366 6 c0 -5 -4 -10 -10 -10 -5 0 -10 5 -10 10 0 6 5 10
10 10 6 0 10 -4 10 -10z m-779 -26 c-13 -9 -19 -20 -14 -25 13 -13 -7 -442
-21 -457 -2 -1 -75 -3 -162 -3 l-159 0 4 118 c4 140 10 160 48 165 25 3 28 7
29 43 1 22 0 28 -3 14 -3 -21 -9 -26 -24 -22 -17 5 -24 21 -20 46 1 5 -2 6 -7
3 -5 -3 -9 11 -10 30 -1 20 4 36 11 38 7 2 29 9 49 15 20 7 62 16 93 21 31 5
65 12 76 15 13 4 19 2 19 -9 0 -9 8 -16 18 -15 10 0 12 3 4 6 -6 2 -10 9 -6
14 3 5 13 5 25 -1 15 -8 24 -6 41 10 12 11 24 17 27 15 2 -3 -5 -13 -18 -21z
m446 4 c-3 -8 -6 -5 -6 6 -1 11 2 17 5 13 3 -3 4 -12 1 -19z m2606 2 c3 -11 1
-20 -4 -20 -5 0 -9 9 -9 20 0 11 2 20 4 20 2 0 6 -9 9 -20z m-2543 0 c0 -5 -8
-10 -17 -10 -15 0 -16 2 -3 10 19 12 20 12 20 0z m110 0 c0 -5 -5 -10 -11 -10
-5 0 -7 5 -4 10 3 6 8 10 11 10 2 0 4 -4 4 -10z m2907 -12 c-3 -8 -6 -5 -6 6
-1 11 2 17 5 13 3 -3 4 -12 1 -19z m-2747 2 c0 -5 -2 -10 -4 -10 -3 0 -8 5
-11 10 -3 6 -1 10 4 10 6 0 11 -4 11 -10z m-384 -38 c-9 -8 -26 10 -26 26 1
15 2 15 15 -2 8 -11 13 -21 11 -24z m-246 -91 c0 -6 -9 -11 -19 -11 -37 0 -48
-10 -43 -39 3 -21 -2 -33 -20 -45 l-23 -17 24 -19 c22 -19 23 -25 18 -99 -6
-85 1 -101 40 -101 13 0 23 -6 23 -12 0 -9 -17 -13 -52 -12 l-53 1 -7 99 c-8
112 -9 355 -1 367 6 9 113 -96 113 -112z m487 87 c-3 -7 -5 -2 -5 12 0 14 2
19 5 13 2 -7 2 -19 0 -25z m-472 -22 c57 -26 71 -50 34 -61 -16 -5 -30 2 -60
31 -35 34 -48 54 -34 54 2 0 29 -11 60 -24z m164 -7 c14 -40 14 -39 -4 -39 -8
0 -15 9 -15 19 0 11 -3 26 -6 35 -3 9 -2 16 4 16 6 0 15 -14 21 -31z m181 27
c0 -2 -7 -6 -15 -10 -8 -3 -15 -1 -15 4 0 6 7 10 15 10 8 0 15 -2 15 -4z m66
-42 c-16 -30 -21 -17 -10 24 4 15 10 20 16 14 6 -6 4 -20 -6 -38z m547 24 c33
-10 37 -15 37 -45 0 -33 -23 -47 -33 -20 -3 6 -6 2 -6 -10 -1 -16 6 -24 24
-29 l25 -6 -6 -152 c-4 -83 -8 -153 -10 -155 -2 -2 -29 -5 -60 -5 -54 -1 -75
6 -54 19 6 4 10 53 10 119 l0 113 -37 24 c-37 23 -38 26 -41 88 -2 44 1 67 10
73 14 9 82 3 141 -14z m-603 -2 c0 -3 -4 -8 -10 -11 -5 -3 -10 -1 -10 4 0 6 5
11 10 11 6 0 10 -2 10 -4z m135 -7 c11 -16 1 -19 -13 -3 -7 8 -8 14 -3 14 5 0
13 -5 16 -11z m210 1 c-3 -5 -10 -10 -16 -10 -5 0 -9 5 -9 10 0 6 7 10 16 10
8 0 12 -4 9 -10z m899 -5 c3 -8 1 -15 -4 -15 -6 0 -10 7 -10 15 0 8 2 15 4 15
2 0 6 -7 10 -15z m855 -72 c1 -23 -3 -44 -8 -48 -17 -10 -25 94 -11 135 5 13
18 -49 19 -87z m-733 50 c-10 -10 -19 5 -10 18 6 11 8 11 12 0 2 -7 1 -15 -2
-18z m-1146 7 c0 -5 -4 -10 -10 -10 -5 0 -10 5 -10 10 0 6 5 10 10 10 6 0 10
-4 10 -10z m1930 0 c0 -5 -4 -10 -10 -10 -5 0 -10 5 -10 10 0 6 5 10 10 10 6
0 10 -4 10 -10z m927 -12 c-3 -8 -6 -5 -6 6 -1 11 2 17 5 13 3 -3 4 -12 1 -19z
m-3580 -35 c-3 -10 -5 -2 -5 17 0 19 2 27 5 18 2 -10 2 -26 0 -35z m593 32 c0
-8 -4 -15 -10 -15 -5 0 -10 7 -10 15 0 8 5 15 10 15 6 0 10 -7 10 -15z m3167
-7 c-3 -8 -6 -5 -6 6 -1 11 2 17 5 13 3 -3 4 -12 1 -19z m33 7 c0 -8 -4 -15
-8 -15 -5 0 -9 7 -9 15 0 8 4 15 9 15 4 0 8 -7 8 -15z m27 0 c0 -8 -4 -15 -9
-15 -4 0 -8 7 -8 15 0 8 4 15 8 15 5 0 9 -7 9 -15z m20 -7 c-3 -8 -6 -5 -6 6
-1 11 2 17 5 13 3 -3 4 -12 1 -19z m-3592 2 c3 -5 1 -10 -4 -10 -6 0 -11 5
-11 10 0 6 2 10 4 10 3 0 8 -4 11 -10z m-1338 -167 c-2 -21 -4 -6 -4 32 0 39
2 55 4 38 2 -18 2 -50 0 -70z m33 31 c0 -36 -4 -63 -9 -60 -5 3 -9 33 -9 66 0
33 4 60 9 60 5 0 9 -30 9 -66z m1060 31 c0 -8 -2 -15 -4 -15 -2 0 -6 7 -10 15
-3 8 -1 15 4 15 6 0 10 -7 10 -15z m1669 -20 c-10 -10 -125 -14 -139 -5 -10 7
9 10 64 10 44 0 77 -2 75 -5z m221 -15 c0 -5 -4 -10 -9 -10 -6 0 -13 5 -16 10
-3 6 1 10 9 10 9 0 16 -4 16 -10z m-1895 -9 c3 -5 1 -12 -5 -16 -5 -3 -10 1
-10 9 0 18 6 21 15 7z m2225 -1 c0 -5 -5 -10 -11 -10 -5 0 -7 5 -4 10 3 6 8
10 11 10 2 0 4 -4 4 -10z m-3123 -37 c-3 -10 -5 -4 -5 12 0 17 2 24 5 18 2 -7
2 -21 0 -30z m33 12 c0 -14 -4 -25 -8 -25 -7 0 -8 31 -3 48 4 11 11 -3 11 -23z
m47 -12 c-3 -10 -5 -4 -5 12 0 17 2 24 5 18 2 -7 2 -21 0 -30z m-97 7 c0 -11
-4 -20 -10 -20 -5 0 -10 9 -10 20 0 11 5 20 10 20 6 0 10 -9 10 -20z m80 0 c0
-11 -4 -20 -10 -20 -5 0 -10 9 -10 20 0 11 5 20 10 20 6 0 10 -9 10 -20z
m-490 -5 c0 -8 -2 -15 -4 -15 -2 0 -6 7 -10 15 -3 8 -1 15 4 15 6 0 10 -7 10
-15z m4790 -35 c0 -5 -4 -10 -10 -10 -5 0 -10 5 -10 10 0 6 5 10 10 10 6 0 10
-4 10 -10z m30 0 c0 -5 -4 -10 -10 -10 -5 0 -10 5 -10 10 0 6 5 10 10 10 6 0
10 -4 10 -10z m40 6 c0 -11 -19 -15 -25 -6 -3 5 1 10 9 10 9 0 16 -2 16 -4z
m36 -10 c19 -20 18 -26 -6 -26 -13 0 -20 7 -20 20 0 24 6 25 26 6z m29 4 c-3
-5 3 -10 14 -10 12 0 21 -4 21 -10 0 -18 -35 -11 -48 10 -10 17 -10 20 4 20 8
0 12 -4 9 -10z m-458 -16 c-3 -3 -12 -4 -19 -1 -8 3 -5 6 6 6 11 1 17 -2 13
-5z m543 -4 c0 -5 -6 -10 -14 -10 -8 0 -18 5 -21 10 -3 6 3 10 14 10 12 0 21
-4 21 -10z m50 0 c0 -5 -7 -10 -15 -10 -8 0 -15 5 -15 10 0 6 7 10 15 10 8 0
15 -4 15 -10z m60 0 c0 -5 -9 -10 -20 -10 -11 0 -20 5 -20 10 0 6 9 10 20 10
11 0 20 -4 20 -10z m-5263 -36 c-3 -3 -12 -4 -19 -1 -8 3 -5 6 6 6 11 1 17 -2
13 -5z m4610 -10 c-3 -3 -12 -4 -19 -1 -8 3 -5 6 6 6 11 1 17 -2 13 -5z m555
-99 c2 -67 -1 -105 -7 -105 -7 0 -11 40 -11 105 1 58 4 105 8 105 4 0 8 -47
10 -105z m38 0 c0 -63 -4 -105 -10 -105 -6 0 -10 42 -10 105 0 63 4 105 10
105 6 0 10 -42 10 -105z m30 0 c0 -59 -4 -105 -9 -105 -6 0 -9 46 -9 105 1 58
5 105 9 105 5 0 9 -47 9 -105z m40 0 c0 -63 -4 -105 -10 -105 -6 0 -10 42 -10
105 0 63 4 105 10 105 6 0 10 -42 10 -105z m30 0 c0 -58 -4 -105 -9 -105 -4 0
-8 47 -8 105 1 58 5 105 9 105 4 0 8 -47 8 -105z m-5350 38 c0 -25 -3 -43 -7
-39 -11 11 -12 86 -2 86 5 0 9 -21 9 -47z m44 5 c-2 -23 -7 -44 -10 -47 -3 -3
-5 13 -2 37 2 23 0 42 -4 42 -4 0 -9 -19 -11 -42 l-4 -43 -1 48 c-2 40 1 47
17 47 16 0 19 -6 15 -42z m4539 22 c-3 -11 -7 -20 -9 -20 -2 0 -4 9 -4 20 0
11 4 20 9 20 5 0 7 -9 4 -20z m-4686 -52 c-2 -13 -4 -5 -4 17 -1 22 1 32 4 23
2 -10 2 -28 0 -40z m700 37 c0 -8 -4 -15 -9 -15 -4 0 -8 7 -8 15 0 8 4 15 8
15 5 0 9 -7 9 -15z m20 -17 c-3 -7 -5 -2 -5 12 0 14 2 19 5 13 2 -7 2 -19 0
-25z m30 0 c-3 -7 -5 -2 -5 12 0 14 2 19 5 13 2 -7 2 -19 0 -25z m50 0 c-3 -7
-5 -2 -5 12 0 14 2 19 5 13 2 -7 2 -19 0 -25z m3853 22 c0 -5 -4 -10 -10 -10
-5 0 -10 5 -10 10 0 6 5 10 10 10 6 0 10 -4 10 -10z m70 0 c0 -5 -4 -10 -10
-10 -5 0 -10 5 -10 10 0 6 5 10 10 10 6 0 10 -4 10 -10z m70 0 c0 -5 -4 -10
-10 -10 -5 0 -10 5 -10 10 0 6 5 10 10 10 6 0 10 -4 10 -10z m-4010 -14 c0 -3
-4 -8 -10 -11 -5 -3 -10 -1 -10 4 0 6 5 11 10 11 6 0 10 -2 10 -4z m-860 -35
c0 -6 -16 -9 -35 -8 -46 3 -46 17 0 17 19 0 35 -4 35 -9z m5180 -96 c0 -63 -4
-105 -10 -105 -6 0 -10 42 -10 105 0 63 4 105 10 105 6 0 10 -42 10 -105z m30
0 c0 -63 -4 -105 -10 -105 -6 0 -10 42 -10 105 0 63 4 105 10 105 6 0 10 -42
10 -105z m-370 91 c0 -11 -19 -15 -25 -6 -3 5 1 10 9 10 9 0 16 -2 16 -4z
m-110 -86 c0 -11 -4 -20 -10 -20 -5 0 -10 9 -10 20 0 11 5 20 10 20 6 0 10 -9
10 -20z m36 0 c0 -11 -6 -20 -12 -20 -7 0 -10 8 -7 20 3 11 8 20 12 20 4 0 7
-9 7 -20z m34 0 c0 -11 -4 -20 -10 -20 -5 0 -10 9 -10 20 0 11 5 20 10 20 6 0
10 -9 10 -20z m37 0 c-1 -11 -7 -20 -13 -20 -7 0 -10 8 -7 20 3 11 9 20 14 20
4 0 7 -9 6 -20z m33 0 c0 -11 -4 -20 -10 -20 -5 0 -10 9 -10 20 0 11 5 20 10
20 6 0 10 -9 10 -20z m180 -45 c0 -37 -4 -65 -10 -65 -6 0 -10 28 -10 65 0 37
4 65 10 65 6 0 10 -28 10 -65z m38 0 c1 -37 -3 -65 -8 -65 -6 0 -10 29 -10 65
0 36 4 65 8 65 5 0 9 -29 10 -65z m-4551 -42 c-2 -21 -4 -6 -4 32 0 39 2 55 4
38 2 -18 2 -50 0 -70z m44 75 c3 -44 0 -101 -6 -106 -11 -12 -21 18 -19 55 1
21 3 46 3 56 1 25 21 21 22 -5z m26 -75 c-2 -21 -4 -6 -4 32 0 39 2 55 4 38 2
-18 2 -50 0 -70z m33 32 c0 -36 -4 -65 -8 -65 -5 0 -8 29 -8 65 0 36 3 65 8
65 4 0 8 -29 8 -65z m140 45 c0 -11 -4 -20 -10 -20 -5 0 -10 9 -10 20 0 11 5
20 10 20 6 0 10 -9 10 -20z m-656 -20 c20 0 16 -98 -4 -102 -34 -9 -50 3 -49
35 2 30 2 31 6 5 4 -27 26 -41 22 -15 -3 26 4 111 8 95 2 -10 10 -18 17 -18z
m106 -26 c0 -19 -4 -33 -8 -30 -4 2 -7 17 -6 33 3 33 3 33 9 33 3 0 5 -16 5
-36z m285 -14 c-3 -57 -15 -63 -15 -7 0 26 4 47 8 47 5 0 8 -18 7 -40z m-515
-7 c0 -5 -16 -8 -35 -8 -19 0 -35 3 -35 8 0 4 16 7 35 7 19 0 35 -3 35 -7z"/>
<path d="M2990 1770 c-13 -8 -12 -10 3 -10 9 0 17 5 17 10 0 12 -1 12 -20 0z"/>
<path d="M1778 1743 c6 -2 18 -2 25 0 6 3 1 5 -13 5 -14 0 -19 -2 -12 -5z"/>
<path d="M1790 1805 c13 -14 28 -25 33 -25 6 0 0 11 -13 25 -13 14 -28 25 -33
25 -6 0 0 -11 13 -25z"/>
<path d="M1795 1450 c3 -5 11 -10 16 -10 6 0 7 5 4 10 -3 6 -11 10 -16 10 -6
0 -7 -4 -4 -10z"/>
<path d="M1780 1420 c0 -5 4 -10 9 -10 5 0 11 -8 13 -17 3 -17 4 -17 10 -1 5
12 1 21 -12 28 -14 7 -20 7 -20 0z"/>
<path d="M193 600 c0 -25 2 -35 4 -22 2 12 2 32 0 45 -2 12 -4 2 -4 -23z"/>
<path d="M556 2943 c-6 -14 -5 -15 5 -6 7 7 10 15 7 18 -3 3 -9 -2 -12 -12z"/>
<path d="M697 2749 c23 -23 45 -41 47 -38 3 3 -16 22 -42 44 l-47 38 42 -44z"/>
<path d="M357 2655 c-4 -22 -6 -56 -6 -75 1 -25 4 -18 10 25 10 68 7 111 -4
50z"/>
<path d="M343 2485 c0 -33 2 -45 4 -27 2 18 2 45 0 60 -2 15 -4 0 -4 -33z"/>
<path d="M1480 2256 c0 -3 9 -10 20 -16 11 -6 20 -8 20 -6 0 3 -9 10 -20 16
-11 6 -20 8 -20 6z"/>
<path d="M1545 2215 c22 -18 86 -53 70 -38 -5 6 -28 20 -50 32 -22 13 -31 15
-20 6z"/>
<path d="M1630 2166 c0 -3 9 -10 20 -16 11 -6 20 -8 20 -6 0 3 -9 10 -20 16
-11 6 -20 8 -20 6z"/>
<path d="M1680 2136 c0 -3 9 -10 20 -16 11 -6 20 -8 20 -6 0 3 -9 10 -20 16
-11 6 -20 8 -20 6z"/>
<path d="M781 2014 c0 -11 3 -14 6 -6 3 7 2 16 -1 19 -3 4 -6 -2 -5 -13z"/>
<path d="M283 1900 c-6 -30 -12 -84 -13 -120 -1 -36 -2 -72 -3 -80 -1 -8 2
-16 6 -18 5 -1 11 30 13 69 3 39 8 79 13 88 4 9 5 39 2 66 l-6 50 -12 -55z"/>
<path d="M750 1891 c0 -11 4 -22 10 -26 5 -3 7 -12 3 -20 -3 -10 1 -15 12 -15
10 0 15 5 12 14 -3 7 -1 18 5 24 16 16 2 42 -22 42 -13 0 -20 -7 -20 -19z"/>
<path d="M2593 1657 c-19 -24 -22 -46 -7 -58 17 -14 19 -12 29 20 6 21 5 23
-11 17 -15 -5 -16 -4 -7 5 14 14 35 3 31 -16 -3 -13 0 -15 20 -15 19 0 7 29
-19 44 -21 12 -29 13 -36 3z"/>
<path d="M3602 1605 c0 -16 3 -50 7 -75 l8 -45 1 50 c0 28 -4 61 -8 75 -8 24
-8 24 -8 -5z"/>
<path d="M3305 1600 c-3 -5 -1 -18 4 -27 6 -10 11 -13 11 -6 0 6 3 18 6 27 7
17 -11 22 -21 6z"/>
</g>
</svg>
